# xmcd
#
# Track frame offsets: 
#        150
#        13010
#        25782
#        39247
#        58662
#        70507
#        83320
#        100437
#        115350
#        129900
#
# Disc length: 2048 seconds
#
# Revision: 1
# Processed by: cddbd v1.5.2PL0 Copyright (c) Steve Scherf et al.
# Submitted via: ExactAudioCopy v0.99pb3
#
DISCID=7007fe0a
DTITLE=La Tropa F - Soldados De Plata
DYEAR=2000
DGENRE=Latin
TTITLE0=Esperando El Milenio
TTITLE1=Ritmo Y Sabor
TTITLE2=No Me Mates
TTITLE3=Sin Tu Amor
TTITLE4=Botas Y Sombrero
TTITLE5=Toma Mi Amor
TTITLE6=Dime
TTITLE7=Why Cant I Get You Off My Mind
TTITLE8=Tu Manera De Amarme
TTITLE9=Dance Mix Medley (El Azucar, Modelo, Juan Sabor)
EXTD=
EXTT0=
EXTT1=
EXTT2=
EXTT3=
EXTT4=
EXTT5=
EXTT6=
EXTT7=
EXTT8=
EXTT9=
PLAYORDER=
